<?xml version="1.0" encoding="iso-8859-1"?>
<!-- Generator: Adobe Illustrator 21.0.2, SVG Export Plug-In . SVG Version: 6.00 Build 0)  -->
<!DOCTYPE svg PUBLIC "-//W3C//DTD SVG 1.1//EN" "http://www.w3.org/Graphics/SVG/1.1/DTD/svg11.dtd">
<svg version="1.1" xmlns="http://www.w3.org/2000/svg" xmlns:xlink="http://www.w3.org/1999/xlink" x="0px" y="0px"
	 viewBox="0 0 63 63" style="enable-background:new 0 0 63 63;" xml:space="preserve">
<g id="cross">
	<g id="menu_1_">
		<path style="fill:#FFFFFF;" d="M59.593,49.456L41.637,31.5l17.956-17.956c1.593-1.593,1.593-4.199,0-5.792l-4.344-4.344
			c-1.593-1.593-4.199-1.593-5.792,0L31.5,21.363L13.544,3.407c-1.593-1.593-4.199-1.593-5.792,0L3.407,7.751
			c-1.593,1.593-1.593,4.199,0,5.792L21.363,31.5L3.552,49.456c-1.593,1.593-1.593,4.199,0,5.792l4.344,4.344
			c1.593,1.593,4.199,1.593,5.792,0l17.956-17.956l17.812,17.812c1.593,1.593,4.199,1.593,5.792,0l4.344-4.344
			C61.186,53.511,61.186,51.049,59.593,49.456z"/>
	</g>
</g>
<g id="Layer_1">
</g>
</svg>
