<?xml version="1.0" encoding="iso-8859-1"?>
<!-- Generator: Adobe Illustrator 21.0.2, SVG Export Plug-In . SVG Version: 6.00 Build 0)  -->
<!DOCTYPE svg PUBLIC "-//W3C//DTD SVG 1.1//EN" "http://www.w3.org/Graphics/SVG/1.1/DTD/svg11.dtd">
<svg version="1.1" xmlns="http://www.w3.org/2000/svg" xmlns:xlink="http://www.w3.org/1999/xlink" x="0px" y="0px"
	 viewBox="0 0 63 63" style="enable-background:new 0 0 63 63;" xml:space="preserve">
<g id="menu">
	<path style="fill:#000000;" d="M53.946,53.245H9.054c-1.55,0-2.806-1.256-2.806-2.806V46.23c0-1.55,1.256-2.806,2.806-2.806h44.893
		c1.55,0,2.806,1.256,2.806,2.806v4.209C56.752,51.989,55.497,53.245,53.946,53.245z M53.946,36.41H9.054
		c-1.55,0-2.806-1.256-2.806-2.806v-4.209c0-1.55,1.256-2.806,2.806-2.806h44.893c1.55,0,2.806,1.256,2.806,2.806v4.209
		C56.752,35.155,55.497,36.41,53.946,36.41z M53.946,19.575H9.054c-1.55,0-2.806-1.256-2.806-2.806v-4.209
		c0-1.55,1.256-2.806,2.806-2.806h44.893c1.55,0,2.806,1.256,2.806,2.806v4.209C56.752,18.32,55.497,19.575,53.946,19.575z"/>
</g>
<g id="Layer_1">
</g>
</svg>
